<svg xmlns="http://www.w3.org/2000/svg" viewBox="0 0 24 24">
  <defs>
    <linearGradient id="beet-grad" x1="0" y1="0" x2="0" y2="1">
      <stop offset="0" stop-color="#be185d"/>
      <stop offset="1" stop-color="#831843"/>
    </linearGradient>
  </defs>
  <!-- Leaves -->
  <path d="M10 6c-1-2-0.5-4 1-5 0.5 1.5 0 3-1 5Z" fill="#16a34a" stroke="#15803d" stroke-width="1"/>
  <path d="M14 6c1-2 0.5-4-1-5-0.5 1.5 0 3 1 5Z" fill="#16a34a" stroke="#15803d" stroke-width="1"/>
  <path d="M12 5V8" stroke="#15803d" stroke-width="1.5" stroke-linecap="round"/>
  <!-- Beetroot body -->
  <path d="M12 8c-4 0-6 3-6 6 0 4 2 7 6 8 4-1 6-4 6-8 0-3-2-6-6-6Z" fill="url(#beet-grad)" stroke="#9d174d" stroke-width="1.2"/>
  <!-- Texture lines -->
  <path d="M9 12c0 3 1 5 3 6M15 12c0 3-1 5-3 6" stroke="#f472b6" stroke-width="0.8" opacity="0.4" fill="none"/>
  <!-- Root -->
  <path d="M12 22c0 0.5-0.2 1-0.5 1.5M12 22c0 0.5 0.2 1 0.5 1.5" stroke="#9d174d" stroke-width="1" stroke-linecap="round"/>
</svg>
