<svg xmlns="http://www.w3.org/2000/svg" viewBox="0 0 24 24">
  <defs>
    <linearGradient id="pepper-grad" x1="0" y1="0" x2="1" y2="1">
      <stop offset="0" stop-color="#ef4444"/>
      <stop offset="1" stop-color="#dc2626"/>
    </linearGradient>
  </defs>
  <!-- Stem -->
  <path d="M12 3v2.5" stroke="#16a34a" stroke-width="2" stroke-linecap="round"/>
  <!-- Pepper body -->
  <path d="M8 7c-2 1-3.5 4-3.5 8 0 3 1.5 5.5 4 6 1.2.3 2.3.3 3.5.3s2.3 0 3.5-.3c2.5-.5 4-3 4-6 0-4-1.5-7-3.5-8-1-.5-2.5-.7-4-.7s-3 .2-4 .7Z" fill="url(#pepper-grad)" stroke="#b91c1c" stroke-width="1.2" stroke-linejoin="round"/>
  <!-- Highlight -->
  <path d="M9 10c-.5 2-.5 4 0 6" stroke="#fca5a5" stroke-width="1.5" stroke-linecap="round" opacity="0.6"/>
  <!-- Lobes hint -->
  <path d="M12 21v-3" stroke="#b91c1c" stroke-width="0.8" stroke-linecap="round" opacity="0.5"/>
</svg>
