<svg xmlns="http://www.w3.org/2000/svg" viewBox="0 0 64 64" width="64" height="64" role="img" aria-label="krowa">
  <defs>
    <linearGradient id="cow-body" x1="12" y1="18" x2="52" y2="50" gradientUnits="userSpaceOnUse">
      <stop offset="0" stop-color="#f6f7fb"/>
      <stop offset="1" stop-color="#dfe4f2"/>
    </linearGradient>
    <linearGradient id="cow-muzzle" x1="22" y1="32" x2="42" y2="54" gradientUnits="userSpaceOnUse">
      <stop offset="0" stop-color="#f2b6b6"/>
      <stop offset="1" stop-color="#d98b8b"/>
    </linearGradient>
  </defs>
  <path d="M12 30c0-10 9-18 20-18s20 8 20 18v10c0 10-9 18-20 18S12 50 12 40V30z" fill="url(#cow-body)" stroke="#2b2f3a" stroke-width="2" />
  <path d="M18 18c-4-1-7 2-8 6 2 2 5 2 8 1z" fill="#8b5a2b" stroke="#2b2f3a" stroke-width="2" stroke-linejoin="round"/>
  <path d="M46 18c4-1 7 2 8 6-2 2-5 2-8 1z" fill="#8b5a2b" stroke="#2b2f3a" stroke-width="2" stroke-linejoin="round"/>
  <path d="M24 8c2 4 5 7 8 7s6-3 8-7" fill="none" stroke="#2b2f3a" stroke-width="2" stroke-linecap="round"/>
  <path d="M20 30c2-6 9-8 12-5 3-3 10-1 12 5-3 3-7 5-12 5s-9-2-12-5z" fill="#1f2430" opacity="0.9"/>
  <path d="M22 36c0-4 4-7 10-7s10 3 10 7v6c0 6-6 10-10 10s-10-4-10-10v-6z" fill="url(#cow-muzzle)" stroke="#2b2f3a" stroke-width="2"/>
  <circle cx="26" cy="40" r="2" fill="#2b2f3a"/>
  <circle cx="38" cy="40" r="2" fill="#2b2f3a"/>
  <path d="M30 46c2 2 4 2 6 0" fill="none" stroke="#2b2f3a" stroke-width="2" stroke-linecap="round"/>
  <path d="M24 26c-2 0-4 2-4 4" fill="none" stroke="#2b2f3a" stroke-width="2" stroke-linecap="round"/>
  <path d="M44 26c2 0 4 2 4 4" fill="none" stroke="#2b2f3a" stroke-width="2" stroke-linecap="round"/>
</svg>
