<svg xmlns="http://www.w3.org/2000/svg" viewBox="0 0 24 24">
  <!-- Flour bag body -->
  <path d="M6 8h12l-1 13H7L6 8Z" fill="#faf5ff" stroke="#d8b4fe" stroke-width="1.2" stroke-linejoin="round"/>
  <!-- Bag top folded -->
  <path d="M6 8c0-2 2-4 6-4s6 2 6 4" fill="none" stroke="#d8b4fe" stroke-width="1.2"/>
  <path d="M8 6c1-1 2.5-1.5 4-1.5s3 .5 4 1.5" fill="none" stroke="#c084fc" stroke-width="0.8"/>
  <!-- Label on bag -->
  <rect x="8" y="11" width="8" height="6" rx="0.5" fill="#fef3c7" stroke="#fcd34d" stroke-width="0.8"/>
  <!-- Wheat symbol on label -->
  <path d="M12 12.5v3" stroke="#a16207" stroke-width="0.8" stroke-linecap="round"/>
  <path d="M10.5 13.5c.8-.3 1.5-.3 2.3 0M10.8 15c.6-.2 1.2-.2 1.8 0" stroke="#a16207" stroke-width="0.6" stroke-linecap="round"/>
  <!-- Flour dust effect -->
  <circle cx="5" cy="18" r="0.5" fill="#e9d5ff" opacity="0.6"/>
  <circle cx="19" cy="16" r="0.4" fill="#e9d5ff" opacity="0.5"/>
</svg>
