<svg xmlns="http://www.w3.org/2000/svg" viewBox="0 0 24 24">
  <defs>
    <linearGradient id="ginger-grad" x1="0" y1="0" x2="1" y2="1">
      <stop offset="0" stop-color="#fcd34d"/>
      <stop offset="1" stop-color="#b45309"/>
    </linearGradient>
  </defs>
  <!-- Main ginger body -->
  <path d="M6 12c0-2 1-3 3-3h2c1 0 2-1 3-1 2 0 3 1 4 3 0.5 1 0 3-1 4-1 1-2 1-3 1h-1c-1 0-2 1-3 2-2 1-4 0-5-2-0.5-1-0.5-3 1-4Z" fill="url(#ginger-grad)" stroke="#92400e" stroke-width="1.2" stroke-linejoin="round"/>
  <!-- Knob 1 -->
  <path d="M5 10c-1-1-1-3 0-4 1 1 1 2 1 3" fill="url(#ginger-grad)" stroke="#92400e" stroke-width="1"/>
  <!-- Knob 2 -->
  <path d="M17 9c1-2 3-2 4-1-0.5 1.5-2 2-3 2" fill="url(#ginger-grad)" stroke="#92400e" stroke-width="1"/>
  <!-- Texture lines -->
  <path d="M8 11c1 0 2 1 3 1M11 14c1 0 2-0.5 3 0" stroke="#78350f" stroke-width="0.6" stroke-linecap="round" opacity="0.5"/>
</svg>
