<svg xmlns="http://www.w3.org/2000/svg" viewBox="0 0 24 24">
  <defs>
    <linearGradient id="leaf-grad" x1="0" y1="0" x2="1" y2="1">
      <stop offset="0" stop-color="#4ade80"/>
      <stop offset="1" stop-color="#16a34a"/>
    </linearGradient>
  </defs>
  <!-- Stem -->
  <path d="M12 20V10" stroke="#15803d" stroke-width="1.5" stroke-linecap="round"/>
  <!-- Left leaves -->
  <path d="M12 10c-3-1-5 0-6 3 2 1 5 0 6-3Z" fill="url(#leaf-grad)" stroke="#15803d" stroke-width="1"/>
  <path d="M12 14c-2.5-0.5-4 0.5-5 2.5 1.5 0.8 4 0 5-2.5Z" fill="url(#leaf-grad)" stroke="#15803d" stroke-width="1"/>
  <!-- Right leaves -->
  <path d="M12 8c3-1.5 5.5 0 6 3-2.5 1-5.5-0.5-6-3Z" fill="url(#leaf-grad)" stroke="#15803d" stroke-width="1"/>
  <path d="M12 12c2.5-0.5 4 0.5 5 2.5-1.5 0.8-4 0-5-2.5Z" fill="url(#leaf-grad)" stroke="#15803d" stroke-width="1"/>
  <!-- Top leaf -->
  <path d="M12 6c0-2 1-4 2-5-0.5 2 0 4-2 5Z" fill="url(#leaf-grad)" stroke="#15803d" stroke-width="1"/>
</svg>
