<svg xmlns="http://www.w3.org/2000/svg" viewBox="0 0 24 24">
  <defs>
    <linearGradient id="kale-grad" x1="0" y1="0" x2="0" y2="1">
      <stop offset="0" stop-color="#22c55e"/>
      <stop offset="1" stop-color="#166534"/>
    </linearGradient>
  </defs>
  <!-- Stem -->
  <path d="M12 22V8" stroke="#15803d" stroke-width="2" stroke-linecap="round"/>
  <!-- Curly kale leaves -->
  <path d="M12 8c-2 0-4 1-5 3-0.5 1 0 2 1 2.5 1 0.3 2-0.5 2-1.5 0 1 1 2 2 2s2-1 2-2c0 1 1 1.8 2 1.5 1-0.5 1.5-1.5 1-2.5-1-2-3-3-5-3Z" fill="url(#kale-grad)" stroke="#166534" stroke-width="0.8"/>
  <path d="M12 5c-1.5 0-3 0.8-4 2-0.5 1 0 2 1 2 0.8 0 1.5-0.5 1.5-1.2 0 0.8 0.8 1.5 1.5 1.5s1.5-0.7 1.5-1.5c0 0.7 0.7 1.2 1.5 1.2 1 0 1.5-1 1-2-1-1.2-2.5-2-4-2Z" fill="url(#kale-grad)" stroke="#166534" stroke-width="0.8"/>
  <path d="M12 3c-1 0-2 0.5-2.5 1.5 0.5 0.5 1.5 0.5 2.5 0.5s2 0 2.5-0.5c-0.5-1-1.5-1.5-2.5-1.5Z" fill="url(#kale-grad)" stroke="#166534" stroke-width="0.8"/>
  <!-- Side leaves -->
  <path d="M7 12c-1.5 1-2 2.5-1.5 4 1 0 2-0.5 2.5-1.5" fill="url(#kale-grad)" stroke="#166534" stroke-width="0.8"/>
  <path d="M17 12c1.5 1 2 2.5 1.5 4-1 0-2-0.5-2.5-1.5" fill="url(#kale-grad)" stroke="#166534" stroke-width="0.8"/>
</svg>
