<svg xmlns="http://www.w3.org/2000/svg" viewBox="0 0 24 24">
  <defs>
    <linearGradient id="cap-brown-grad" x1="0" y1="0" x2="0" y2="1">
      <stop offset="0" stop-color="#a16207"/>
      <stop offset="1" stop-color="#713f12"/>
    </linearGradient>
    <linearGradient id="stem-brown-grad" x1="0" y1="0" x2="0" y2="1">
      <stop offset="0" stop-color="#fef9c3"/>
      <stop offset="1" stop-color="#fef08a"/>
    </linearGradient>
  </defs>
  <!-- Mushroom cap -->
  <path d="M4 12c0-5 3.5-9 8-9s8 4 8 9c0 1-0.5 2-2 2H6c-1.5 0-2-1-2-2Z" fill="url(#cap-brown-grad)" stroke="#57534e" stroke-width="1.2"/>
  <!-- Cap spots/texture -->
  <ellipse cx="8" cy="8" rx="1.5" ry="1" fill="#ca8a04" opacity="0.4"/>
  <ellipse cx="14" cy="7" rx="1" ry="0.8" fill="#ca8a04" opacity="0.4"/>
  <ellipse cx="16" cy="10" rx="1.2" ry="0.8" fill="#ca8a04" opacity="0.4"/>
  <!-- Mushroom stem -->
  <path d="M9 14h6v6c0 1-1 2-3 2s-3-1-3-2v-6Z" fill="url(#stem-brown-grad)" stroke="#a8a29e" stroke-width="1"/>
  <!-- Gills hint -->
  <path d="M7 13.5h10" stroke="#57534e" stroke-width="0.5" opacity="0.5"/>
</svg>
