<svg xmlns="http://www.w3.org/2000/svg" viewBox="0 0 24 24">
  <defs>
    <linearGradient id="onion-red-grad" x1="0" y1="0" x2="0" y2="1">
      <stop offset="0" stop-color="#c084fc"/>
      <stop offset="1" stop-color="#7e22ce"/>
    </linearGradient>
  </defs>
  <!-- Onion sprout -->
  <path d="M12 2v4" stroke="#22c55e" stroke-width="1.5" stroke-linecap="round"/>
  <!-- Onion body -->
  <path d="M12 6c-5 0-8 4-8 8 0 5 3 8 8 8s8-3 8-8c0-4-3-8-8-8Z" fill="url(#onion-red-grad)" stroke="#581c87" stroke-width="1.2"/>
  <!-- Layer lines -->
  <path d="M7 10c0 4 2 7 5 9" stroke="#a855f7" stroke-width="0.8" fill="none" opacity="0.6"/>
  <path d="M17 10c0 4-2 7-5 9" stroke="#a855f7" stroke-width="0.8" fill="none" opacity="0.6"/>
  <path d="M12 7v12" stroke="#a855f7" stroke-width="0.8" fill="none" opacity="0.6"/>
  <!-- Root wisps -->
  <path d="M10 21c-0.3 0.5-0.3 1 0 1.5M12 21v1.5M14 21c0.3 0.5 0.3 1 0 1.5" stroke="#581c87" stroke-width="0.6" stroke-linecap="round"/>
</svg>
