<svg xmlns="http://www.w3.org/2000/svg" viewBox="0 0 24 24">
  <!-- Plate -->
  <circle cx="12" cy="13" r="9" fill="#fef3c7" stroke="#d97706" stroke-width="1.2"/>
  <!-- Plate rim highlight -->
  <circle cx="12" cy="13" r="9" fill="none" stroke="#fcd34d" stroke-width="0.8" opacity="0.6"/>
  <!-- Spaghetti strands -->
  <path d="M6 11c2 1 3 2 6 2s4-1 6-2" stroke="#ea580c" stroke-width="1" stroke-linecap="round" fill="none"/>
  <path d="M5.5 13c2.5 0.5 3.5 1 6.5 1s4-0.5 6.5-1" stroke="#ea580c" stroke-width="1" stroke-linecap="round" fill="none"/>
  <path d="M6.5 15c2 -0.5 3 -1 5.5 -1s3.5 0.5 5.5 1" stroke="#ea580c" stroke-width="1" stroke-linecap="round" fill="none"/>
  <path d="M7 10c1.5 -1 2.5 -1.5 5 -1.5s3.5 0.5 5 1.5" stroke="#ea580c" stroke-width="1" stroke-linecap="round" fill="none"/>
  <!-- Fork prongs -->
  <line x1="8" y1="6" x2="8" y2="11" stroke="#94a3b8" stroke-width="1.2" stroke-linecap="round"/>
  <line x1="12" y1="5" x2="12" y2="11" stroke="#94a3b8" stroke-width="1.2" stroke-linecap="round"/>
  <line x1="16" y1="6" x2="16" y2="11" stroke="#94a3b8" stroke-width="1.2" stroke-linecap="round"/>
  <!-- Fork handle -->
  <path d="M10 4.5h4v-1.5c0-0.5 -0.5-1 -1-1h-2c-0.5 0 -1 0.5 -1 1v1.5Z" fill="#cbd5e1" stroke="#94a3b8" stroke-width="0.8"/>
</svg>
