<svg xmlns="http://www.w3.org/2000/svg" viewBox="0 0 24 24">
  <path d="M3 12c0-2 2-5 8-5 4 0 7 1 9 3l2 2-2 2c-2 2-5 3-9 3-6 0-8-3-8-5Z" fill="#fb923c" stroke="#ea580c" stroke-width="1.2" stroke-linejoin="round"/>
  <path d="M19 10c1 1 2 1.5 2 2s-1 1-2 2" fill="#fdba74" stroke="#ea580c" stroke-width="0.8"/>
  <circle cx="6" cy="12" r="1" fill="#1e293b"/>
  <path d="M9 10c2-0.5 4-0.5 6 0M9 14c2 0.5 4 0.5 6 0" stroke="#fed7aa" stroke-width="0.8" opacity="0.6"/>
  <path d="M10 12h5" stroke="#fed7aa" stroke-width="0.6" opacity="0.4"/>
</svg>
