<svg xmlns="http://www.w3.org/2000/svg" viewBox="0 0 24 24">
  <defs>
    <linearGradient id="salt-grad" x1="0" y1="0" x2="0" y2="1">
      <stop offset="0" stop-color="#f8fafc"/>
      <stop offset="1" stop-color="#e2e8f0"/>
    </linearGradient>
  </defs>
  <!-- Shaker body -->
  <path d="M7 8h10v12a2 2 0 0 1-2 2H9a2 2 0 0 1-2-2V8Z" fill="url(#salt-grad)" stroke="#94a3b8" stroke-width="1.2"/>
  <!-- Shaker top -->
  <path d="M6 6a2 2 0 0 1 2-2h8a2 2 0 0 1 2 2v2H6V6Z" fill="#cbd5e1" stroke="#94a3b8" stroke-width="1.2"/>
  <!-- Holes -->
  <circle cx="9" cy="5" r="0.8" fill="#64748b"/>
  <circle cx="12" cy="5" r="0.8" fill="#64748b"/>
  <circle cx="15" cy="5" r="0.8" fill="#64748b"/>
  <!-- Salt grains falling -->
  <circle cx="9" cy="2" r="0.5" fill="#94a3b8"/>
  <circle cx="12" cy="1.5" r="0.5" fill="#94a3b8"/>
  <circle cx="15" cy="2.2" r="0.5" fill="#94a3b8"/>
  <!-- Label line -->
  <rect x="8" y="12" width="8" height="4" rx="0.5" fill="#94a3b8" opacity="0.3"/>
</svg>
