<svg xmlns="http://www.w3.org/2000/svg" viewBox="0 0 24 24">
  <defs>
    <linearGradient id="sauerkraut-outer" x1="0" y1="0" x2="0" y2="1">
      <stop offset="0" stop-color="#a3e635"/>
      <stop offset="1" stop-color="#65a30d"/>
    </linearGradient>
    <linearGradient id="sauerkraut-inner" x1="0" y1="0" x2="0" y2="1">
      <stop offset="0" stop-color="#d9f99d"/>
      <stop offset="1" stop-color="#84cc16"/>
    </linearGradient>
  </defs>
  <!-- Outer cabbage leaves -->
  <path d="M4 12c-1-4 1-8 4-10 2-1 5-1 8 0 3 2 5 6 4 10-0.5 3-2 5-4 6-2 1-5 1-7 0-2-1-4-3-5-6Z" fill="url(#sauerkraut-outer)" stroke="#3f6212" stroke-width="1.2"/>
  <!-- Middle leaves wrapping -->
  <path d="M6 11c-0.5-2 0.5-4 2-5 1-0.5 2.5-0.5 4 0 1.5 0.5 2.5 2 2.5 3.5-0.2 2-1 3-2.5 3.5-1.5 0.5-3.5 0-4-1.5-0.5-1-0.5-1.5 0-2Z" fill="url(#sauerkraut-inner)" stroke="#4ade80" stroke-width="0.8"/>
  <!-- Inner leaves wrapping -->
  <path d="M8 12c-0.3-1.5 0.5-2.5 1.5-3 0.8-0.3 1.8-0.3 2.5 0 0.8 0.3 1.5 1 1.5 2-0.1 1.2-0.6 1.8-1.5 2-0.8 0.2-1.8 0.1-2-0.5-0.3-0.5-0.3-1 0-1.5Z" fill="#e2f766" stroke="#22c55e" stroke-width="0.6"/>
  <!-- Leaf veins/wrinkles for texture -->
  <path d="M9 10c1 1 2 2 2.5 3.5M7 11c1.5 1.2 3 1.8 4 2" fill="none" stroke="#3f6212" stroke-width="0.5" opacity="0.4"/>
  <!-- Center highlight -->
  <path d="M11 10c0.5 1 0.5 2 0 3" fill="none" stroke="#fef08a" stroke-width="0.6" stroke-linecap="round" opacity="0.5"/>
</svg>
