<svg xmlns="http://www.w3.org/2000/svg" viewBox="0 0 24 24" width="24" height="24" role="img" aria-label="indyk">
  <defs>
    <linearGradient id="turkey-feathers" x1="4.5" y1="5.25" x2="19.5" y2="21.75" gradientUnits="userSpaceOnUse">
      <stop offset="0" stop-color="#b5885e"/>
      <stop offset="1" stop-color="#7b4d2f"/>
    </linearGradient>
    <linearGradient id="turkey-body" x1="6.75" y1="8.25" x2="17.25" y2="20.25" gradientUnits="userSpaceOnUse">
      <stop offset="0" stop-color="#caa07a"/>
      <stop offset="1" stop-color="#8a5b3a"/>
    </linearGradient>
    <linearGradient id="turkey-beak" x1="11.25" y1="7.5" x2="13.5" y2="10.5" gradientUnits="userSpaceOnUse">
      <stop offset="0" stop-color="#ffcc66"/>
      <stop offset="1" stop-color="#e2a33e"/>
    </linearGradient>
  </defs>
  <path d="M5.25 15c-.75-5.25 3-9.75 7.5-9.75s8.25 4.5 7.5 9.75c-.75 4.5-4.5 6.75-7.5 6.75S6 19.5 5.25 15z" fill="url(#turkey-feathers)" stroke="#2b2f3a" stroke-width=".75"/>
  <path d="M7.5 15c0-3.75 2.25-6.75 5.25-6.75s5.25 3 5.25 6.75-2.25 6.75-5.25 6.75S7.5 18.75 7.5 15z" fill="url(#turkey-body)" stroke="#2b2f3a" stroke-width=".75"/>
  <circle cx="10.5" cy="12.75" r="1" fill="#2b2f3a"/>
  <circle cx="15" cy="12.75" r="1" fill="#2b2f3a"/>
  <path d="M11.25 13.5h2.25" fill="none" stroke="#2b2f3a" stroke-width=".75" stroke-linecap="round"/>
  <path d="M12 13.5c.75.75.75 1.5 0 2.25" fill="none" stroke="#d04a4a" stroke-width="1.125" stroke-linecap="round"/>
  <path d="M11.625 10.125l2.25 1.125-2.25 1.125z" fill="url(#turkey-beak)" stroke="#2b2f3a" stroke-width=".75" stroke-linejoin="round"/>
  <path d="M9 8.25c-1.125-.75-2.25-.75-3.375 0" fill="none" stroke="#2b2f3a" stroke-width=".75" stroke-linecap="round"/>
  <path d="M18.375 8.25c-1.125-.75-2.25-.75-3.375 0" fill="none" stroke="#2b2f3a" stroke-width=".75" stroke-linecap="round"/>
</svg>
